<mxfile host="Electron" agent="Mozilla/5.0 (Windows NT 10.0; Win64; x64) AppleWebKit/537.36 (KHTML, like Gecko) draw.io/28.1.2 Chrome/138.0.7204.243 Electron/37.4.0 Safari/537.36" version="28.1.2">
  <diagram name="Página-1" id="tMnIb_9TzgAYtkYZ81w0">
    <mxGraphModel dx="1042" dy="626" grid="1" gridSize="10" guides="1" tooltips="1" connect="1" arrows="1" fold="1" page="1" pageScale="1" pageWidth="827" pageHeight="1169" math="0" shadow="0">
      <root>
        <mxCell id="0" />
        <mxCell id="1" parent="0" />
        <mxCell id="TcDE14pk56Lrlefz9R16-7" style="edgeStyle=orthogonalEdgeStyle;rounded=0;orthogonalLoop=1;jettySize=auto;html=1;" parent="1" source="TcDE14pk56Lrlefz9R16-2" target="TcDE14pk56Lrlefz9R16-3" edge="1">
          <mxGeometry relative="1" as="geometry" />
        </mxCell>
        <mxCell id="TcDE14pk56Lrlefz9R16-2" value="inicio" style="ellipse;whiteSpace=wrap;html=1;aspect=fixed;" parent="1" vertex="1">
          <mxGeometry x="70" y="240" width="80" height="80" as="geometry" />
        </mxCell>
        <mxCell id="TcDE14pk56Lrlefz9R16-8" style="edgeStyle=orthogonalEdgeStyle;rounded=0;orthogonalLoop=1;jettySize=auto;html=1;" parent="1" source="TcDE14pk56Lrlefz9R16-3" target="TcDE14pk56Lrlefz9R16-4" edge="1">
          <mxGeometry relative="1" as="geometry" />
        </mxCell>
        <mxCell id="TcDE14pk56Lrlefz9R16-3" value="Abrir aba de &quot;Criar evento&quot;" style="rounded=1;whiteSpace=wrap;html=1;" parent="1" vertex="1">
          <mxGeometry x="210" y="250" width="120" height="60" as="geometry" />
        </mxCell>
        <mxCell id="TcDE14pk56Lrlefz9R16-9" style="edgeStyle=orthogonalEdgeStyle;rounded=0;orthogonalLoop=1;jettySize=auto;html=1;" parent="1" source="TcDE14pk56Lrlefz9R16-4" target="TcDE14pk56Lrlefz9R16-5" edge="1">
          <mxGeometry relative="1" as="geometry">
            <Array as="points">
              <mxPoint x="414" y="200" />
            </Array>
          </mxGeometry>
        </mxCell>
        <mxCell id="TcDE14pk56Lrlefz9R16-18" value="Sim" style="edgeLabel;html=1;align=center;verticalAlign=middle;resizable=0;points=[];" parent="TcDE14pk56Lrlefz9R16-9" vertex="1" connectable="0">
          <mxGeometry x="0.3379" y="-1" relative="1" as="geometry">
            <mxPoint as="offset" />
          </mxGeometry>
        </mxCell>
        <mxCell id="TcDE14pk56Lrlefz9R16-17" style="edgeStyle=orthogonalEdgeStyle;rounded=0;orthogonalLoop=1;jettySize=auto;html=1;" parent="1" source="TcDE14pk56Lrlefz9R16-4" target="TcDE14pk56Lrlefz9R16-6" edge="1">
          <mxGeometry relative="1" as="geometry">
            <Array as="points">
              <mxPoint x="420" y="350" />
            </Array>
          </mxGeometry>
        </mxCell>
        <mxCell id="TcDE14pk56Lrlefz9R16-19" value="Não" style="edgeLabel;html=1;align=center;verticalAlign=middle;resizable=0;points=[];" parent="TcDE14pk56Lrlefz9R16-17" vertex="1" connectable="0">
          <mxGeometry x="0.3132" y="-1" relative="1" as="geometry">
            <mxPoint as="offset" />
          </mxGeometry>
        </mxCell>
        <mxCell id="TcDE14pk56Lrlefz9R16-4" value="Possui categoria que deseja?" style="rhombus;whiteSpace=wrap;html=1;" parent="1" vertex="1">
          <mxGeometry x="373.5" y="240" width="80" height="80" as="geometry" />
        </mxCell>
        <mxCell id="TcDE14pk56Lrlefz9R16-37" style="edgeStyle=orthogonalEdgeStyle;rounded=0;orthogonalLoop=1;jettySize=auto;html=1;" parent="1" source="TcDE14pk56Lrlefz9R16-5" target="TcDE14pk56Lrlefz9R16-22" edge="1">
          <mxGeometry relative="1" as="geometry" />
        </mxCell>
        <mxCell id="TcDE14pk56Lrlefz9R16-5" value="Selecionar categoria" style="rounded=1;whiteSpace=wrap;html=1;" parent="1" vertex="1">
          <mxGeometry x="490" y="170" width="120" height="60" as="geometry" />
        </mxCell>
        <mxCell id="TcDE14pk56Lrlefz9R16-21" style="edgeStyle=orthogonalEdgeStyle;rounded=0;orthogonalLoop=1;jettySize=auto;html=1;entryX=0.5;entryY=1;entryDx=0;entryDy=0;" parent="1" source="TcDE14pk56Lrlefz9R16-6" target="TcDE14pk56Lrlefz9R16-5" edge="1">
          <mxGeometry relative="1" as="geometry" />
        </mxCell>
        <mxCell id="TcDE14pk56Lrlefz9R16-6" value="Criar nova categoria" style="rounded=1;whiteSpace=wrap;html=1;" parent="1" vertex="1">
          <mxGeometry x="490" y="320" width="120" height="60" as="geometry" />
        </mxCell>
        <mxCell id="TcDE14pk56Lrlefz9R16-38" style="edgeStyle=orthogonalEdgeStyle;rounded=0;orthogonalLoop=1;jettySize=auto;html=1;" parent="1" source="TcDE14pk56Lrlefz9R16-22" target="TcDE14pk56Lrlefz9R16-23" edge="1">
          <mxGeometry relative="1" as="geometry" />
        </mxCell>
        <mxCell id="TcDE14pk56Lrlefz9R16-22" value="Clicar em avançar" style="rounded=1;whiteSpace=wrap;html=1;" parent="1" vertex="1">
          <mxGeometry x="660" y="170" width="120" height="60" as="geometry" />
        </mxCell>
        <mxCell id="TcDE14pk56Lrlefz9R16-39" style="edgeStyle=orthogonalEdgeStyle;rounded=0;orthogonalLoop=1;jettySize=auto;html=1;" parent="1" source="TcDE14pk56Lrlefz9R16-23" target="TcDE14pk56Lrlefz9R16-24" edge="1">
          <mxGeometry relative="1" as="geometry" />
        </mxCell>
        <mxCell id="TcDE14pk56Lrlefz9R16-23" value="Selecionar imagem para o evento" style="rounded=0;whiteSpace=wrap;html=1;" parent="1" vertex="1">
          <mxGeometry x="820" y="170" width="120" height="60" as="geometry" />
        </mxCell>
        <mxCell id="TcDE14pk56Lrlefz9R16-40" style="edgeStyle=orthogonalEdgeStyle;rounded=0;orthogonalLoop=1;jettySize=auto;html=1;" parent="1" source="TcDE14pk56Lrlefz9R16-24" target="TcDE14pk56Lrlefz9R16-25" edge="1">
          <mxGeometry relative="1" as="geometry" />
        </mxCell>
        <mxCell id="TcDE14pk56Lrlefz9R16-24" value="Escrever o titulo do evento" style="rounded=0;whiteSpace=wrap;html=1;" parent="1" vertex="1">
          <mxGeometry x="970" y="170" width="120" height="60" as="geometry" />
        </mxCell>
        <mxCell id="TcDE14pk56Lrlefz9R16-41" style="edgeStyle=orthogonalEdgeStyle;rounded=0;orthogonalLoop=1;jettySize=auto;html=1;" parent="1" source="TcDE14pk56Lrlefz9R16-25" target="TcDE14pk56Lrlefz9R16-26" edge="1">
          <mxGeometry relative="1" as="geometry" />
        </mxCell>
        <mxCell id="TcDE14pk56Lrlefz9R16-25" value="Escrever descrição do evento" style="rounded=0;whiteSpace=wrap;html=1;" parent="1" vertex="1">
          <mxGeometry x="1121" y="170" width="120" height="60" as="geometry" />
        </mxCell>
        <mxCell id="TcDE14pk56Lrlefz9R16-42" style="edgeStyle=orthogonalEdgeStyle;rounded=0;orthogonalLoop=1;jettySize=auto;html=1;" parent="1" source="TcDE14pk56Lrlefz9R16-26" target="TcDE14pk56Lrlefz9R16-27" edge="1">
          <mxGeometry relative="1" as="geometry" />
        </mxCell>
        <mxCell id="TcDE14pk56Lrlefz9R16-26" value="Clicar em avançar" style="rounded=0;whiteSpace=wrap;html=1;" parent="1" vertex="1">
          <mxGeometry x="1280" y="170" width="120" height="60" as="geometry" />
        </mxCell>
        <mxCell id="TcDE14pk56Lrlefz9R16-43" style="edgeStyle=orthogonalEdgeStyle;rounded=0;orthogonalLoop=1;jettySize=auto;html=1;" parent="1" source="TcDE14pk56Lrlefz9R16-27" target="TcDE14pk56Lrlefz9R16-28" edge="1">
          <mxGeometry relative="1" as="geometry" />
        </mxCell>
        <mxCell id="TcDE14pk56Lrlefz9R16-27" value="Selecionar se o evento é privado ou publico" style="rounded=0;whiteSpace=wrap;html=1;" parent="1" vertex="1">
          <mxGeometry x="1280" y="290" width="120" height="60" as="geometry" />
        </mxCell>
        <mxCell id="TcDE14pk56Lrlefz9R16-44" style="edgeStyle=orthogonalEdgeStyle;rounded=0;orthogonalLoop=1;jettySize=auto;html=1;" parent="1" source="TcDE14pk56Lrlefz9R16-28" target="TcDE14pk56Lrlefz9R16-29" edge="1">
          <mxGeometry relative="1" as="geometry" />
        </mxCell>
        <mxCell id="TcDE14pk56Lrlefz9R16-28" value="Selecionar data e hora do evento" style="rounded=0;whiteSpace=wrap;html=1;" parent="1" vertex="1">
          <mxGeometry x="1121" y="290" width="120" height="60" as="geometry" />
        </mxCell>
        <mxCell id="TcDE14pk56Lrlefz9R16-45" style="edgeStyle=orthogonalEdgeStyle;rounded=0;orthogonalLoop=1;jettySize=auto;html=1;" parent="1" source="TcDE14pk56Lrlefz9R16-29" target="TcDE14pk56Lrlefz9R16-30" edge="1">
          <mxGeometry relative="1" as="geometry" />
        </mxCell>
        <mxCell id="TcDE14pk56Lrlefz9R16-29" value="Descrever localização do evento" style="rounded=0;whiteSpace=wrap;html=1;" parent="1" vertex="1">
          <mxGeometry x="960" y="290" width="120" height="60" as="geometry" />
        </mxCell>
        <mxCell id="TcDE14pk56Lrlefz9R16-46" style="edgeStyle=orthogonalEdgeStyle;rounded=0;orthogonalLoop=1;jettySize=auto;html=1;" parent="1" source="TcDE14pk56Lrlefz9R16-30" target="TcDE14pk56Lrlefz9R16-31" edge="1">
          <mxGeometry relative="1" as="geometry" />
        </mxCell>
        <mxCell id="TcDE14pk56Lrlefz9R16-30" value="Descrever o valor por pessoa do evento" style="rounded=0;whiteSpace=wrap;html=1;" parent="1" vertex="1">
          <mxGeometry x="820" y="290" width="120" height="60" as="geometry" />
        </mxCell>
        <mxCell id="TcDE14pk56Lrlefz9R16-47" style="edgeStyle=orthogonalEdgeStyle;rounded=0;orthogonalLoop=1;jettySize=auto;html=1;" parent="1" source="TcDE14pk56Lrlefz9R16-31" target="TcDE14pk56Lrlefz9R16-33" edge="1">
          <mxGeometry relative="1" as="geometry" />
        </mxCell>
        <mxCell id="TcDE14pk56Lrlefz9R16-31" value="Descrever a quantidade de pessoas no evento" style="rounded=0;whiteSpace=wrap;html=1;" parent="1" vertex="1">
          <mxGeometry x="820" y="390" width="120" height="60" as="geometry" />
        </mxCell>
        <mxCell id="TcDE14pk56Lrlefz9R16-48" style="edgeStyle=orthogonalEdgeStyle;rounded=0;orthogonalLoop=1;jettySize=auto;html=1;" parent="1" source="TcDE14pk56Lrlefz9R16-33" target="TcDE14pk56Lrlefz9R16-34" edge="1">
          <mxGeometry relative="1" as="geometry" />
        </mxCell>
        <mxCell id="TcDE14pk56Lrlefz9R16-33" value="Voltar a home do app" style="rounded=0;whiteSpace=wrap;html=1;" parent="1" vertex="1">
          <mxGeometry x="970" y="390" width="120" height="60" as="geometry" />
        </mxCell>
        <mxCell id="TcDE14pk56Lrlefz9R16-49" style="edgeStyle=orthogonalEdgeStyle;rounded=0;orthogonalLoop=1;jettySize=auto;html=1;" parent="1" source="TcDE14pk56Lrlefz9R16-34" target="TcDE14pk56Lrlefz9R16-35" edge="1">
          <mxGeometry relative="1" as="geometry" />
        </mxCell>
        <mxCell id="TcDE14pk56Lrlefz9R16-34" value="Selecionar em eventos&amp;nbsp;" style="rounded=0;whiteSpace=wrap;html=1;" parent="1" vertex="1">
          <mxGeometry x="1120.5" y="390" width="120" height="60" as="geometry" />
        </mxCell>
        <mxCell id="TcDE14pk56Lrlefz9R16-50" style="edgeStyle=orthogonalEdgeStyle;rounded=0;orthogonalLoop=1;jettySize=auto;html=1;" parent="1" source="TcDE14pk56Lrlefz9R16-35" target="TcDE14pk56Lrlefz9R16-36" edge="1">
          <mxGeometry relative="1" as="geometry" />
        </mxCell>
        <mxCell id="TcDE14pk56Lrlefz9R16-35" value="Selecionar evento que acabou de ser criado" style="rounded=0;whiteSpace=wrap;html=1;" parent="1" vertex="1">
          <mxGeometry x="1280" y="390" width="120" height="60" as="geometry" />
        </mxCell>
        <mxCell id="TcDE14pk56Lrlefz9R16-36" value="Fim" style="ellipse;whiteSpace=wrap;html=1;aspect=fixed;" parent="1" vertex="1">
          <mxGeometry x="1300" y="490" width="80" height="80" as="geometry" />
        </mxCell>
      </root>
    </mxGraphModel>
  </diagram>
</mxfile>
